<svg width="56" height="56" viewBox="0 0 56 56" fill="none" xmlns="http://www.w3.org/2000/svg">
<circle cx="28" cy="28" r="28" fill="#422836"/>
<path d="M36.1679 31C33.9437 31 32.1343 32.7944 32.1343 35C32.1343 37.2057 33.9437 39.0001 36.1679 39.0001C38.3925 39.0001 40.2015 37.2057 40.2015 35C40.2015 32.7944 38.3921 31 36.1679 31ZM36.1679 37C35.0557 37 34.1511 36.103 34.1511 35C34.1511 33.897 35.0557 33 36.1679 33C37.2802 33 38.1847 33.897 38.1847 35C38.1847 36.1031 37.2802 37 36.1679 37Z" fill="#FFFCF8"/>
<path d="M22.3867 31C20.1625 31 18.353 32.7944 18.353 35C18.353 37.2057 20.1625 39.0001 22.3867 39.0001C24.6108 39.0001 26.4203 37.2057 26.4203 35C26.4203 32.7944 24.6108 31 22.3867 31ZM22.3867 37C21.2744 37 20.3698 36.103 20.3698 35C20.3698 33.897 21.2744 33 22.3867 33C23.4986 33 24.4035 33.897 24.4035 35C24.4035 36.1031 23.4989 37 22.3867 37Z" fill="#FFFCF8"/>
<path d="M38.8845 19.5508C38.713 19.2131 38.3645 19.0001 37.9833 19.0001H32.6724V21.0001H37.3614L40.1073 26.4162L41.9097 25.5175L38.8845 19.5508Z" fill="#FFFCF8"/>
<path d="M33.143 34.0333H25.5127V36.0333H33.143V34.0333Z" fill="#FFFCF8"/>
<path d="M19.3616 34.0333H15.8658C15.3088 34.0333 14.8574 34.481 14.8574 35.0333C14.8574 35.5857 15.3089 36.0333 15.8658 36.0333H19.3616C19.9186 36.0333 20.37 35.5856 20.37 35.0333C20.37 34.4809 19.9186 34.0333 19.3616 34.0333Z" fill="#FFFCF8"/>
<path d="M43.7885 27.92L41.805 25.3867C41.6144 25.1427 41.3203 25 41.0087 25H33.6809V18C33.6809 17.4476 33.2295 17 32.6726 17H15.8658C15.3088 17 14.8574 17.4477 14.8574 18C14.8574 18.5523 15.3089 19 15.8658 19H31.6641V26C31.6641 26.5523 32.1156 27 32.6725 27H40.5149L41.9834 28.8759V34.0333H39.1935C38.6365 34.0333 38.1851 34.481 38.1851 35.0333C38.1851 35.5857 38.6366 36.0333 39.1935 36.0333H42.9918C43.5488 36.0333 44.0002 35.5856 44.0002 35.0333V28.5334C44.0002 28.3114 43.9256 28.0954 43.7885 27.92Z" fill="#FFFCF8"/>
<path d="M19.294 28.9669H14.6553C14.0983 28.9669 13.647 29.4146 13.647 29.9669C13.647 30.5193 14.0984 30.9669 14.6553 30.9669H19.294C19.851 30.9669 20.3024 30.5192 20.3024 29.9669C20.3024 29.4146 19.851 28.9669 19.294 28.9669Z" fill="#FFFCF8"/>
<path d="M21.6134 25.0332H13.0084C12.4514 25.0332 12 25.4809 12 26.0332C12 26.5856 12.4514 27.0332 13.0084 27.0332H21.6134C22.1704 27.0332 22.6218 26.5855 22.6218 26.0332C22.6218 25.4809 22.1704 25.0332 21.6134 25.0332Z" fill="#FFFCF8"/>
<path d="M23.2604 21.1H14.6553C14.0983 21.1 13.647 21.5477 13.647 22.1C13.647 22.6523 14.0984 23.0999 14.6553 23.0999H23.2604C23.8174 23.0999 24.2688 22.6523 24.2688 22.1C24.2689 21.5477 23.8174 21.1 23.2604 21.1Z" fill="#FFFCF8"/>
</svg>
