<svg width="56" height="56" viewBox="0 0 56 56" fill="none" xmlns="http://www.w3.org/2000/svg">
<circle cx="28" cy="28" r="28" fill="#422836"/>
<path d="M33.7796 32.8391C33.4335 32.3101 32.7152 32.1403 32.1992 32.4995C30.7233 33.5379 28.7445 32.5387 28.5617 32.4864C27.8825 32.3101 27.0074 32.3428 26.1584 32.4603C26.2825 32.1795 26.387 31.8922 26.485 31.5852C26.7462 30.7624 26.8833 29.9264 26.8964 29.1362H29.3258C29.9592 29.1362 30.4686 28.6269 30.4686 27.9934C30.4686 27.3599 29.9592 26.8505 29.3258 26.8505H26.5437C26.5437 26.844 26.5372 26.8309 26.5372 26.8244C25.9952 25.3615 26.3152 22.8277 27.9086 22.6056C30.0376 22.3183 30.4294 24.5256 30.436 24.5975C30.4882 25.1787 30.978 25.6293 31.5723 25.6293C32.676 25.6293 32.7217 24.5779 32.7021 24.3428C32.689 24.2383 32.1405 20.0848 27.9021 20.3199C23.9903 20.542 23.8009 25.6097 24.1405 26.8505H23.3241C22.6907 26.8505 22.1813 27.3599 22.1813 27.9934C22.1813 28.6269 22.6907 29.1362 23.3241 29.1362H24.6107C24.565 30.8342 23.7095 32.7085 22.7103 33.3485C22.227 33.662 21.9984 34.3085 22.2923 34.8048C22.7364 35.5428 23.5658 35.4383 23.6833 35.3926C24.9503 34.9681 27.1184 34.4718 27.9805 34.7003C28.1503 34.746 30.9388 36.1632 33.44 34.413C33.9625 34.0538 34.1258 33.3681 33.7796 32.8391Z" fill="#FFFCF8"/>
<circle cx="28" cy="28" r="14.875" stroke="white" stroke-width="2.25"/>
</svg>
