<svg width="56" height="56" viewBox="0 0 56 56" fill="none" xmlns="http://www.w3.org/2000/svg">
<circle cx="28" cy="28" r="28" fill="#422836"/>
<path d="M20.5 23.3125H21.9867L19.8371 25.4621C19.569 25.7303 19.4888 26.1335 19.6339 26.4838C19.779 26.8341 20.1209 27.0626 20.5 27.0626H24.25C24.7677 27.0626 25.1875 26.6428 25.1875 26.1251C25.1875 25.6073 24.7677 25.1876 24.25 25.1876H22.7633L24.9129 23.0379C25.181 22.7698 25.2612 22.3666 25.1161 22.0162C24.971 21.6659 24.6291 21.4375 24.25 21.4375H20.5C19.9822 21.4375 19.5625 21.8573 19.5625 22.375C19.5625 22.8928 19.9822 23.3125 20.5 23.3125Z" fill="white"/>
<path d="M28 25.1875H31.3617L27.3371 29.2121C27.069 29.4803 26.9888 29.8835 27.1339 30.2338C27.279 30.5841 27.6209 30.8126 28 30.8126H33.625C34.1427 30.8126 34.5625 30.3928 34.5625 29.8751C34.5625 29.3573 34.1427 28.9376 33.625 28.9376H30.2633L34.2879 24.9129C34.556 24.6448 34.6362 24.2416 34.4911 23.8912C34.346 23.5409 34.0041 23.3125 33.625 23.3125H28C27.4822 23.3125 27.0625 23.7322 27.0625 24.25C27.0625 24.7678 27.4822 25.1875 28 25.1875Z" fill="white"/>
<path d="M13.9375 39.25C13.9375 40.8008 15.1992 42.0625 16.75 42.0625C18.3008 42.0625 19.5625 40.8008 19.5625 39.25C19.5625 37.6992 18.3008 36.4375 16.75 36.4375C15.1992 36.4375 13.9375 37.6992 13.9375 39.25ZM17.6875 39.25C17.6875 39.7669 17.2669 40.1875 16.75 40.1875C16.2331 40.1875 15.8125 39.7669 15.8125 39.25C15.8125 38.7331 16.2331 38.3125 16.75 38.3125C17.2669 38.3125 17.6875 38.7331 17.6875 39.25Z" fill="white"/>
<path d="M18.7073 32.6055C18.6337 32.9258 18.6108 33.26 18.6414 33.5996C18.716 34.4252 19.1038 35.2327 19.7334 35.8733C20.7004 36.8571 22.0968 37.313 23.5166 37.2163C24.9851 37.1163 26.5296 36.4406 28.0202 35.2521C29.1192 36.0211 30.4171 36.4375 31.75 36.4375C34.3418 36.4375 36.6717 34.8954 37.7195 32.5443C41.2629 31.9338 44 28.8804 44 25.1875C44 22.0144 41.9416 19.1771 38.8781 18.1273C38.5011 17.9981 38.1133 17.899 37.7196 17.8309C36.6719 15.4795 34.3419 13.9375 31.75 13.9375C30.4089 13.9375 29.1033 14.359 28 15.1371C26.8966 14.359 25.5911 13.9375 24.25 13.9375C21.6582 13.9375 19.3283 15.4796 18.2805 17.8307C16.6499 18.1117 15.1506 18.9163 14.0101 20.1329C12.7139 21.5157 12 23.3109 12 25.1875C12 28.9836 14.9155 32.1707 18.7073 32.6055ZM19.0381 19.6201C19.4051 19.5856 19.7178 19.3392 19.8373 18.9904C20.4883 17.0896 22.2617 15.8125 24.25 15.8125C25.391 15.8125 26.5 16.2454 27.3726 17.0314C27.7292 17.3526 28.2709 17.3526 28.6275 17.0314C29.5 16.2454 30.6089 15.8125 31.75 15.8125C33.7383 15.8125 35.5117 17.0896 36.1628 18.9904C36.2822 19.3392 36.5949 19.5856 36.9619 19.6201C37.4084 19.662 37.8486 19.7566 38.2703 19.9011C40.5759 20.6911 42.125 22.8156 42.125 25.1875C42.125 28.0373 39.8571 30.4829 36.9619 30.7549C36.5949 30.7894 36.2822 31.0358 36.1628 31.3846C35.5117 33.2854 33.7383 34.5625 31.75 34.5625C30.6089 34.5625 29.5 34.1296 28.6275 33.3437C28.2709 33.0224 27.7292 33.0224 27.3726 33.3437C24.6259 35.8179 22.2284 35.7369 21.0708 34.5591C20.5286 34.0074 20.2286 33.1097 20.8513 32.442C21.0951 32.1806 21.169 31.8035 21.042 31.4694C20.915 31.1354 20.6092 30.9026 20.2534 30.8692L19.0381 30.755C16.1429 30.4829 13.875 28.0373 13.875 25.1875C13.875 22.3377 16.1429 19.8921 19.0381 19.6201Z" fill="white"/>
</svg>
