<svg width="191" height="36" fill="#E5DEE2" xmlns="http://www.w3.org/2000/svg"><path d="M18.344 35.864c8.928 0 15.792-6 17.088-14.832h-9.456c-.96 3.744-3.888 6.192-7.632 6.192-4.752 0-8.256-3.792-8.256-8.976 0-5.184 3.504-9.024 8.256-9.024 3.552 0 6.432 2.256 7.584 5.664h9.408C33.944 6.392 27.128.584 18.344.584 8.12.584.488 8.168.488 18.248c0 10.032 7.632 17.616 17.856 17.616zm34.089 0c8.448 0 14.544-5.808 14.544-13.824S60.88 8.264 52.433 8.264s-14.496 5.76-14.496 13.776 6.048 13.824 14.496 13.824zm0-8.016c-3.216 0-5.568-2.352-5.568-5.76 0-3.456 2.352-5.808 5.568-5.808 3.264 0 5.616 2.4 5.616 5.808s-2.352 5.76-5.616 5.76zm31.495 8.016c7.296 0 12.864-4.752 13.872-11.76h-8.784c-.72 2.304-2.688 3.792-5.088 3.792-3.12 0-5.376-2.448-5.376-5.856 0-3.36 2.256-5.76 5.376-5.76 2.352 0 4.32 1.392 5.04 3.504h8.736c-1.008-6.912-6.432-11.472-13.728-11.472-8.4 0-14.352 5.712-14.352 13.728s6 13.824 14.304 13.824zm30.708 0c8.448 0 14.544-5.808 14.544-13.824s-6.096-13.776-14.544-13.776-14.496 5.76-14.496 13.776 6.048 13.824 14.496 13.824zm0-8.016c-3.216 0-5.568-2.352-5.568-5.76 0-3.456 2.352-5.808 5.568-5.808 3.264 0 5.616 2.4 5.616 5.808s-2.352 5.76-5.616 5.76zm31.687 8.016c8.448 0 14.544-5.808 14.544-13.824s-6.096-13.776-14.544-13.776-14.496 5.76-14.496 13.776 6.048 13.824 14.496 13.824zm0-8.016c-3.216 0-5.568-2.352-5.568-5.76 0-3.456 2.352-5.808 5.568-5.808 3.264 0 5.616 2.4 5.616 5.808s-2.352 5.76-5.616 5.76zM180.651 8.36c-3.36 0-6.24 1.248-8.16 3.408l-1.2-2.688h-6.288V35h8.928V21.176c0-3.312 1.584-5.232 4.368-5.232 2.256 0 3.408 1.488 3.408 4.512V35h8.928V19.208c0-6.576-3.984-10.848-9.984-10.848z"/></svg>