<svg width="14" height="15" fill="none" xmlns="http://www.w3.org/2000/svg"><path d="M13.964 4.117c-.032-.744-.153-1.256-.325-1.699a3.417 3.417 0 00-.81-1.242A3.445 3.445 0 0011.59.37c-.446-.172-.955-.292-1.699-.325C9.141.008 8.904 0 7.003 0c-1.901 0-2.14.008-2.886.041-.744.033-1.256.153-1.699.326-.47.177-.892.45-1.242.81-.355.35-.632.773-.807 1.238-.172.446-.292.955-.325 1.699C.008 4.864 0 5.102 0 7.003c0 1.9.008 2.139.041 2.886.033.744.153 1.255.326 1.698.177.47.454.892.81 1.242.35.356.773.632 1.238.807.446.173.955.293 1.7.326.746.033.984.04 2.885.04 1.901 0 2.14-.008 2.886-.04.744-.033 1.256-.153 1.699-.326a3.581 3.581 0 002.048-2.049c.173-.445.293-.954.326-1.698.033-.747.041-.985.041-2.886 0-1.901-.003-2.14-.036-2.886zm-1.26 5.717c-.03.684-.146 1.053-.241 1.3a2.323 2.323 0 01-1.33 1.329c-.246.095-.618.21-1.3.24-.738.033-.96.041-2.828.041-1.868 0-2.092-.008-2.828-.04-.684-.03-1.053-.146-1.3-.241a2.155 2.155 0 01-.804-.523c-.232-.227-.41-.5-.522-.804-.096-.246-.21-.618-.24-1.3-.034-.738-.042-.96-.042-2.828 0-1.868.008-2.092.041-2.828.03-.684.145-1.053.241-1.3.112-.303.29-.58.525-.804.227-.232.5-.41.804-.522.247-.096.619-.21 1.3-.241.738-.033.96-.041 2.828-.041 1.871 0 2.093.008 2.829.041.684.03 1.053.145 1.299.24.304.113.58.29.804.523.233.227.41.5.523.804.095.247.21.619.24 1.3.033.738.042.96.042 2.828 0 1.868-.009 2.087-.042 2.826z" fill="#3C2531"/><path d="M7.003 3.406a3.598 3.598 0 000 7.194 3.598 3.598 0 000-7.194zm0 5.93a2.334 2.334 0 110-4.667 2.334 2.334 0 010 4.667zM11.582 3.263a.84.84 0 11-1.68 0 .84.84 0 011.68 0z" fill="#3C2531"/></svg>