<svg width="14" height="14" fill="none" xmlns="http://www.w3.org/2000/svg"><path d="M13.062 3.486A6.97 6.97 0 0010.514.94 6.847 6.847 0 007 0C5.73 0 4.56.313 3.487.939A6.968 6.968 0 00.939 3.486 6.846 6.846 0 000 7c0 1.416.386 2.701 1.158 3.856a6.977 6.977 0 003.035 2.561c-.025-.65.015-1.188.118-1.613l.903-3.81c-.152-.298-.228-.669-.228-1.112 0-.517.13-.948.392-1.295.26-.346.58-.52.957-.52.303 0 .537.101.701.301.165.201.246.453.246.757 0 .188-.035.418-.105.688-.07.27-.16.584-.273.94-.112.354-.193.639-.242.851-.085.37-.015.688.21.953.225.264.523.396.893.396.65 0 1.184-.361 1.6-1.084.416-.723.624-1.601.624-2.634 0-.797-.256-1.444-.77-1.942-.513-.498-1.229-.747-2.147-.747-1.026 0-1.857.33-2.492.989A3.29 3.29 0 003.627 6.9c0 .547.155 1.006.465 1.376a.416.416 0 01.1.392 5.238 5.238 0 00-.073.274c-.036.145-.06.24-.072.282-.049.195-.165.255-.347.182-.468-.194-.823-.531-1.066-1.011-.243-.48-.365-1.036-.365-1.668 0-.407.066-.814.196-1.222.13-.407.334-.8.61-1.18.277-.38.608-.716.994-1.007a4.661 4.661 0 011.409-.702 5.852 5.852 0 011.786-.264c.863 0 1.638.191 2.324.574.687.383 1.21.878 1.573 1.486a3.75 3.75 0 01.542 1.95c0 .912-.158 1.732-.474 2.461-.316.73-.763 1.302-1.34 1.718a3.281 3.281 0 01-1.969.625c-.37 0-.717-.087-1.04-.26-.321-.173-.543-.378-.664-.615a326.832 326.832 0 01-.493 1.923c-.115.431-.352.93-.71 1.495.65.194 1.312.291 1.986.291 1.27 0 2.442-.313 3.514-.939a6.966 6.966 0 002.547-2.547A6.848 6.848 0 0014 7c0-1.27-.313-2.441-.938-3.514z" fill="#3B2430"/></svg>